<svg width="43" height="43" viewBox="0 0 43 43" fill="none" xmlns="http://www.w3.org/2000/svg">
<path fill-rule="evenodd" clip-rule="evenodd" d="M23.4968 11.4012C22.0356 12.0375 20.3638 12.0375 18.9026 11.4012L11.4012 18.9026C12.064 20.4247 12.0364 22.1752 11.3184 23.6783L18.7211 31.081C20.2843 30.3342 22.1151 30.3342 23.6784 31.081L31.081 23.6783C30.363 22.1752 30.3354 20.4247 30.9982 18.9026L23.4968 11.4012ZM34.1594 26.5486C36.2243 27.362 38.6651 26.934 40.3345 25.2646C42.5795 23.0196 42.5795 19.3798 40.3345 17.1348C38.6144 15.4147 36.0755 15.0125 33.9725 15.9283L26.4711 8.42691C27.3869 6.32392 26.9847 3.78499 25.2646 2.06491C23.0196 -0.180073 19.3798 -0.180073 17.1348 2.06491C15.4147 3.78499 15.0126 6.3239 15.9283 8.42689L8.42693 15.9283C6.32394 15.0125 3.78501 15.4147 2.06493 17.1348C-0.18005 19.3798 -0.180049 23.0196 2.06493 25.2646C3.73436 26.934 6.17512 27.362 8.24004 26.5486L15.8508 34.1593C15.0374 36.2243 15.4654 38.665 17.1348 40.3344C19.3798 42.5794 23.0196 42.5794 25.2646 40.3344C26.934 38.665 27.362 36.2243 26.5486 34.1593L34.1594 26.5486Z" fill="#4C3E7F"/>
</svg>
