<svg width="27" height="27" viewBox="0 0 27 27" fill="none" xmlns="http://www.w3.org/2000/svg">
<g clip-path="url(#clip0_105_2605)">
<path d="M9.03085 21.7404C9.03085 21.852 8.90565 21.9413 8.74778 21.9413C8.56815 21.9581 8.44294 21.8688 8.44294 21.7404C8.44294 21.6287 8.56815 21.5394 8.72601 21.5394C8.88931 21.5226 9.03085 21.6119 9.03085 21.7404ZM7.3379 21.4891C7.2998 21.6008 7.40867 21.7292 7.57198 21.7627C7.71351 21.8185 7.87681 21.7627 7.90948 21.651C7.94214 21.5394 7.83871 21.411 7.6754 21.3607C7.53387 21.3216 7.37601 21.3775 7.3379 21.4891ZM9.74395 21.3942C9.58609 21.4333 9.47722 21.5394 9.49355 21.6678C9.50988 21.7794 9.65141 21.852 9.81472 21.8129C9.97258 21.7739 10.0815 21.6678 10.0651 21.5561C10.0488 21.45 9.90181 21.3775 9.74395 21.3942ZM13.3258 0C5.77561 0 0 5.87894 0 13.6226C0 19.8142 3.7996 25.1125 9.22681 26.9773C9.92359 27.1057 10.1685 26.6646 10.1685 26.3017C10.1685 25.9556 10.1522 24.0462 10.1522 22.8737C10.1522 22.8737 6.34173 23.7112 5.54153 21.21C5.54153 21.21 4.92097 19.5853 4.02823 19.1666C4.02823 19.1666 2.78165 18.29 4.11532 18.3068C4.11532 18.3068 5.47077 18.4185 6.21653 19.7472C7.40867 21.9023 9.40645 21.2826 10.1849 20.9141C10.3101 20.0208 10.6639 19.4011 11.0558 19.0326C8.0129 18.6864 4.94274 18.2342 4.94274 12.8633C4.94274 11.328 5.35645 10.5575 6.22742 9.57491C6.08589 9.21202 5.62319 7.71576 6.36895 5.78403C7.50665 5.42113 10.125 7.29145 10.125 7.29145C11.2137 6.9788 12.3841 6.81689 13.5435 6.81689C14.703 6.81689 15.8734 6.9788 16.9621 7.29145C16.9621 7.29145 19.5804 5.41555 20.7181 5.78403C21.4639 7.72134 21.0012 9.21202 20.8597 9.57491C21.7306 10.5631 22.2641 11.3336 22.2641 12.8633C22.2641 18.251 19.0579 18.6809 16.0149 19.0326C16.5157 19.4736 16.9403 20.3111 16.9403 21.6231C16.9403 23.5046 16.924 25.8327 16.924 26.2905C16.924 26.6534 17.1744 27.0945 17.8657 26.9661C23.3093 25.1125 27 19.8142 27 13.6226C27 5.87894 20.876 0 13.3258 0ZM5.29113 19.2559C5.22036 19.3117 5.23669 19.4401 5.32923 19.5462C5.41633 19.6356 5.54153 19.6746 5.6123 19.6021C5.68306 19.5462 5.66673 19.4178 5.57419 19.3117C5.4871 19.2224 5.3619 19.1833 5.29113 19.2559ZM4.70323 18.8037C4.66512 18.8763 4.71956 18.9656 4.82843 19.0214C4.91552 19.0772 5.0244 19.0605 5.0625 18.9823C5.1006 18.9098 5.04617 18.8204 4.9373 18.7646C4.82843 18.7311 4.74133 18.7478 4.70323 18.8037ZM6.46694 20.7912C6.37984 20.8638 6.4125 21.0313 6.5377 21.1374C6.6629 21.2658 6.82077 21.2826 6.89153 21.1932C6.9623 21.1206 6.92964 20.9532 6.82077 20.8471C6.70101 20.7187 6.5377 20.7019 6.46694 20.7912ZM5.84637 19.9705C5.75927 20.0264 5.75927 20.1715 5.84637 20.2999C5.93347 20.4283 6.08044 20.4842 6.15121 20.4283C6.23831 20.3558 6.23831 20.2106 6.15121 20.0822C6.075 19.9538 5.93347 19.898 5.84637 19.9705Z" fill="#848282" fill-opacity="0.65"/>
</g>
<defs>
<clipPath id="clip0_105_2605">
<rect width="27" height="27" fill="white"/>
</clipPath>
</defs>
</svg>
